# xmcd
#
# Track frame offsets:
#	150
#	16510
#	38512
#	62685
#	87975
#
# Disc length: 1446 seconds
#
# Revision: 0
# Processed by: cddbd v1.5.2PL0 Copyright (c) Steve Scherf et al.
# Submitted via: EasyCDDAExtractor 16.0.9.1
#
DISCID=2b05a405
DTITLE=Chloe - Round and Round
DYEAR=1998
DGENRE=Dance
TTITLE0=Round and Round (Radio Edit)
TTITLE1=Round and Round (Extended Edit)
TTITLE2=Round and Round (El Rico Club Mix)
TTITLE3=Round and Round (Gotham City Mix)
TTITLE4=Round and Round (Sunday X-Press Mix)
EXTD=
EXTT0=
EXTT1=
EXTT2=
EXTT3=
EXTT4=
PLAYORDER=
